<svg xmlns="http://www.w3.org/2000/svg" xmlns:xlink="http://www.w3.org/1999/xlink" width="500" zoomAndPan="magnify" viewBox="0 0 375 374.999991" height="500" preserveAspectRatio="xMidYMid meet" version="1.0"><defs><clipPath id="5ec29fd67f"><path d="M 185 3 L 190 3 L 190 372.765625 L 185 372.765625 Z M 185 3 " clip-rule="nonzero"/></clipPath><clipPath id="b4c6d52c23"><path d="M 55 2.265625 L 371.960938 2.265625 L 371.960938 372.765625 L 55 372.765625 Z M 55 2.265625 " clip-rule="nonzero"/></clipPath><clipPath id="7807694b65"><path d="M 2.960938 2.265625 L 371.960938 2.265625 L 371.960938 372.765625 L 2.960938 372.765625 Z M 2.960938 2.265625 " clip-rule="nonzero"/></clipPath><clipPath id="40778aa925"><path d="M 2.960938 2.265625 L 371.960938 2.265625 L 371.960938 321 L 2.960938 321 Z M 2.960938 2.265625 " clip-rule="nonzero"/></clipPath><clipPath id="961e0376d9"><path d="M 2.960938 55.875 L 320 55.875 L 320 372.765625 L 2.960938 372.765625 Z M 2.960938 55.875 " clip-rule="nonzero"/></clipPath><clipPath id="75d72af8b0"><path d="M 2.960938 2.265625 L 320 2.265625 L 320 192 L 2.960938 192 Z M 2.960938 2.265625 " clip-rule="nonzero"/></clipPath><clipPath id="6e9392b764"><path d="M 2.960938 2.265625 L 191 2.265625 L 191 321 L 2.960938 321 Z M 2.960938 2.265625 " clip-rule="nonzero"/></clipPath><clipPath id="63be7daab8"><path d="M 2.960938 55.875 L 191 55.875 L 191 372.765625 L 2.960938 372.765625 Z M 2.960938 55.875 " clip-rule="nonzero"/></clipPath><clipPath id="680e52349e"><path d="M 2.960938 184.847656 L 320 184.847656 L 320 372.765625 L 2.960938 372.765625 Z M 2.960938 184.847656 " clip-rule="nonzero"/></clipPath><clipPath id="a7e5743dd7"><path d="M 55 184.847656 L 371.960938 184.847656 L 371.960938 372.765625 L 55 372.765625 Z M 55 184.847656 " clip-rule="nonzero"/></clipPath><clipPath id="7256a2c049"><path d="M 184 55.875 L 371.960938 55.875 L 371.960938 372.765625 L 184 372.765625 Z M 184 55.875 " clip-rule="nonzero"/></clipPath><clipPath id="936901f2f9"><path d="M 184 2.265625 L 371.960938 2.265625 L 371.960938 321 L 184 321 Z M 184 2.265625 " clip-rule="nonzero"/></clipPath><clipPath id="2551bc138d"><path d="M 55 2.265625 L 371.960938 2.265625 L 371.960938 192 L 55 192 Z M 55 2.265625 " clip-rule="nonzero"/></clipPath><clipPath id="11153fe351"><path d="M 2.960938 55.875 L 371.960938 55.875 L 371.960938 372.765625 L 2.960938 372.765625 Z M 2.960938 55.875 " clip-rule="nonzero"/></clipPath><clipPath id="7caddb7fcb"><path d="M 2.960938 2.265625 L 371.960938 2.265625 L 371.960938 321 L 2.960938 321 Z M 2.960938 2.265625 " clip-rule="nonzero"/></clipPath><clipPath id="bd34abb98b"><path d="M 2.960938 2.265625 L 371.960938 2.265625 L 371.960938 372.765625 L 2.960938 372.765625 Z M 2.960938 2.265625 " clip-rule="nonzero"/></clipPath><clipPath id="7a01b95e5b"><path d="M 2.960938 2.265625 L 320 2.265625 L 320 372.765625 L 2.960938 372.765625 Z M 2.960938 2.265625 " clip-rule="nonzero"/></clipPath></defs><g clip-path="url(#5ec29fd67f)"><path stroke-linecap="butt" transform="matrix(0.0360166, 0, 0, -0.0360268, -42.253476, 418.155645)" fill="none" stroke-linejoin="miter" d="M 6377.914723 11443.709669 L 6377.914723 9419.285571 M 6377.914723 3336.580204 L 6377.914723 1312.264532 " stroke="#4d4d4d" stroke-width="113.386002" stroke-opacity="1" stroke-miterlimit="22.926001"/></g><g clip-path="url(#b4c6d52c23)"><path stroke-linecap="butt" transform="matrix(0.0360166, 0, 0, -0.0360268, -42.253476, 418.155621)" fill="none" stroke-linejoin="miter" d="M 9959.926493 9960.005968 L 8353.568775 6081.71206 M 7567.146535 4183.062262 L 6377.914723 1312.263866 " stroke="#4d4d4d" stroke-width="113.386002" stroke-opacity="1" stroke-miterlimit="22.926001"/></g><g clip-path="url(#7807694b65)"><path stroke-linecap="butt" transform="matrix(0.0360166, 0, 0, -0.0360268, -42.253476, 418.155621)" fill="none" stroke-linejoin="miter" d="M 2795.902953 2795.9669 L 4636.636406 4636.608724 M 7488.081328 7533.10411 L 9959.926493 9960.005968 " stroke="#4d4d4d" stroke-width="113.386002" stroke-opacity="1" stroke-miterlimit="22.926001"/></g><path stroke-linecap="butt" transform="matrix(0.0360166, 0, 0, -0.0360268, -42.253476, 418.155645)" fill="none" stroke-linejoin="miter" d="M 9959.926493 2795.967567 L 9959.926493 9960.006634 " stroke="#4d4d4d" stroke-width="113.386002" stroke-opacity="1" stroke-miterlimit="22.926001"/><path stroke-linecap="butt" transform="matrix(0.0360166, 0, 0, -0.0360268, -42.253476, 418.155645)" fill="none" stroke-linejoin="miter" d="M 9959.926493 2795.967567 L 2795.902953 2795.967567 " stroke="#4d4d4d" stroke-width="113.386002" stroke-opacity="1" stroke-miterlimit="22.926001"/><g clip-path="url(#40778aa925)"><path stroke-linecap="butt" transform="matrix(0.0360166, 0, 0, -0.0360268, -42.253476, 418.155621)" fill="none" stroke-linejoin="miter" d="M 1312.318643 6377.932221 L 5822.614506 8355.407809 M 6882.240115 8685.131642 L 9959.926493 9960.005968 " stroke="#4d4d4d" stroke-width="113.386002" stroke-opacity="1" stroke-miterlimit="22.926001"/></g><g clip-path="url(#961e0376d9)"><path stroke-linecap="butt" transform="matrix(0.0360166, 0, 0, -0.0360268, -42.253476, 418.155621)" fill="none" stroke-linejoin="miter" d="M 1312.318643 6377.932221 L 6377.914723 1312.263866 " stroke="#4d4d4d" stroke-width="113.386002" stroke-opacity="1" stroke-miterlimit="22.926001"/></g><path stroke-linecap="butt" transform="matrix(0.0360166, 0, 0, -0.0360268, -42.253476, 418.155645)" fill="none" stroke-linejoin="miter" d="M 2795.902953 9960.006634 L 9959.926493 9960.006634 " stroke="#4d4d4d" stroke-width="113.386002" stroke-opacity="1" stroke-miterlimit="22.926001"/><path stroke-linecap="butt" transform="matrix(0.0360166, 0, 0, -0.0360268, -42.253476, 418.155645)" fill="none" stroke-linejoin="miter" d="M 2795.902953 9960.006634 L 2795.902953 2795.967567 " stroke="#4d4d4d" stroke-width="113.386002" stroke-opacity="1" stroke-miterlimit="22.926001"/><g clip-path="url(#75d72af8b0)"><path stroke-linecap="butt" transform="matrix(0.0360166, 0, 0, -0.0360268, -42.253476, 418.155645)" fill="none" stroke-linejoin="miter" d="M 2795.902953 9960.006634 L 6377.914723 11443.709669 " stroke="#4d4d4d" stroke-width="113.386002" stroke-opacity="1" stroke-miterlimit="22.926001"/></g><g clip-path="url(#6e9392b764)"><path stroke-linecap="butt" transform="matrix(0.0360166, 0, 0, -0.0360268, -42.253476, 418.155645)" fill="none" stroke-linejoin="miter" d="M 1312.318643 6377.932887 L 2795.902953 9960.006634 " stroke="#4d4d4d" stroke-width="113.386002" stroke-opacity="1" stroke-miterlimit="22.926001"/></g><g clip-path="url(#63be7daab8)"><path stroke-linecap="butt" transform="matrix(0.0360166, 0, 0, -0.0360268, -42.253476, 418.155621)" fill="none" stroke-linejoin="miter" d="M 2795.902953 2795.9669 L 1312.318643 6377.932221 " stroke="#4d4d4d" stroke-width="113.386002" stroke-opacity="1" stroke-miterlimit="22.926001"/></g><g clip-path="url(#680e52349e)"><path stroke-linecap="butt" transform="matrix(0.0360166, 0, 0, -0.0360268, -42.253476, 418.155621)" fill="none" stroke-linejoin="miter" d="M 6377.914723 1312.263866 L 2795.902953 2795.9669 " stroke="#4d4d4d" stroke-width="113.386002" stroke-opacity="1" stroke-miterlimit="22.926001"/></g><g clip-path="url(#a7e5743dd7)"><path stroke-linecap="butt" transform="matrix(0.0360166, 0, 0, -0.0360268, -42.253476, 418.155621)" fill="none" stroke-linejoin="miter" d="M 9959.926493 2795.9669 L 6377.914723 1312.263866 " stroke="#4d4d4d" stroke-width="113.386002" stroke-opacity="1" stroke-miterlimit="22.926001"/></g><g clip-path="url(#7256a2c049)"><path stroke-linecap="butt" transform="matrix(0.0360166, 0, 0, -0.0360268, -42.253476, 418.155621)" fill="none" stroke-linejoin="miter" d="M 11443.727717 6377.932221 L 9959.926493 2795.9669 " stroke="#4d4d4d" stroke-width="113.386002" stroke-opacity="1" stroke-miterlimit="22.926001"/></g><g clip-path="url(#936901f2f9)"><path stroke-linecap="butt" transform="matrix(0.0360166, 0, 0, -0.0360268, -42.253476, 418.155621)" fill="none" stroke-linejoin="miter" d="M 9959.926493 9960.005968 L 11443.727717 6377.932221 " stroke="#4d4d4d" stroke-width="113.386002" stroke-opacity="1" stroke-miterlimit="22.926001"/></g><g clip-path="url(#2551bc138d)"><path stroke-linecap="butt" transform="matrix(0.0360166, 0, 0, -0.0360268, -42.253476, 418.155621)" fill="none" stroke-linejoin="miter" d="M 6377.914723 11443.709003 L 9959.926493 9960.005968 " stroke="#4d4d4d" stroke-width="113.386002" stroke-opacity="1" stroke-miterlimit="22.926001"/></g><g clip-path="url(#11153fe351)"><path stroke-linecap="butt" transform="matrix(0.0360166, 0, 0, -0.0360268, -42.253476, 418.155621)" fill="none" stroke-linejoin="miter" d="M 11443.727717 6377.932221 L 8673.734057 5230.675439 M 5439.327208 3890.853866 L 2795.902953 2795.9669 " stroke="#4d4d4d" stroke-width="113.386002" stroke-opacity="1" stroke-miterlimit="22.926001"/></g><g clip-path="url(#7caddb7fcb)"><path stroke-linecap="butt" transform="matrix(0.0360166, 0, 0, -0.0360268, -42.253476, 418.155621)" fill="none" stroke-linejoin="miter" d="M 11443.727717 6377.932221 L 7094.490608 8107.979402 M 7323.551947 8016.793034 L 2745.361956 9837.918156 " stroke="#4d4d4d" stroke-width="113.386002" stroke-opacity="1" stroke-miterlimit="22.926001"/></g><g clip-path="url(#bd34abb98b)"><path stroke-linecap="butt" transform="matrix(0.0360166, 0, 0, -0.0360268, -42.253476, 418.155621)" fill="none" stroke-linejoin="miter" d="M 9959.926493 2795.9669 L 8088.825059 4655.800147 M 5235.75328 7520.201402 L 2795.902953 9960.005968 " stroke="#4d4d4d" stroke-width="113.386002" stroke-opacity="1" stroke-miterlimit="22.926001"/><path stroke-linecap="butt" transform="matrix(0.0360166, 0, 0, -0.0360268, -42.253476, 418.155621)" fill="none" stroke-linejoin="miter" d="M 2795.902953 2795.9669 L 4111.70417 5972.310104 M 4018.973372 5748.735443 L 6377.914723 11443.709003 L 11443.727717 6377.932221 " stroke="#4d4d4d" stroke-width="113.386002" stroke-opacity="1" stroke-miterlimit="22.926001"/></g><g clip-path="url(#7a01b95e5b)"><path stroke-linecap="butt" transform="matrix(0.0360166, 0, 0, -0.0360268, -42.253476, 418.155621)" fill="none" stroke-linejoin="miter" d="M 2745.361956 9837.918156 L 4655.074108 5356.016034 M 5198.986332 4079.40689 L 5439.327208 3515.265785 M 5375.662905 3664.785405 L 6377.914723 1312.263866 " stroke="#4d4d4d" stroke-width="113.386002" stroke-opacity="1" stroke-miterlimit="22.926001"/></g><path fill="#5ce1e6" d="M 187.457031 41.851562 L 278.421875 214.257812 L 187.457031 223.222656 L 96.496094 214.257812 L 187.457031 41.851562 " fill-opacity="1" fill-rule="evenodd"/><path stroke-linecap="round" transform="matrix(0.0360166, 0, 0, -0.0360268, -42.253476, 418.155645)" fill="none" stroke-linejoin="round" d="M 6377.914723 10445.105098 L 8903.554596 5659.609838 L 6377.914723 5410.771892 L 3852.383307 5659.609838 Z M 6377.914723 10445.105098 " stroke="#000000" stroke-width="85.039001" stroke-opacity="1" stroke-miterlimit="22.926001"/><path fill="#0cc0df" d="M 187.457031 165.597656 L 278.421875 214.257812 L 187.457031 262.917969 L 96.496094 214.257812 L 187.457031 165.597656 " fill-opacity="1" fill-rule="evenodd"/><path stroke-linecap="round" transform="matrix(0.0360166, 0, 0, -0.0360268, -42.253476, 418.155645)" fill="none" stroke-linejoin="round" d="M 6377.914723 7010.274023 L 8903.554596 5659.609838 L 6377.914723 4308.945654 L 3852.383307 5659.609838 Z M 6377.914723 7010.274023 " stroke="#000000" stroke-width="85.039001" stroke-opacity="1" stroke-miterlimit="22.926001"/><path fill="#5ce1e6" d="M 278.421875 223.222656 L 187.457031 334.902344 L 96.496094 223.222656 L 187.457031 271.878906 L 278.421875 223.222656 " fill-opacity="1" fill-rule="evenodd"/><path stroke-linecap="round" transform="matrix(0.0360166, 0, 0, -0.0360268, -42.253476, 418.155645)" fill="none" stroke-linejoin="round" d="M 8903.554596 5410.771892 L 6377.914723 2310.869103 L 3852.383307 5410.771892 L 6377.914723 4060.216133 Z M 8903.554596 5410.771892 " stroke="#000000" stroke-width="85.039001" stroke-opacity="1" stroke-miterlimit="22.926001"/><path stroke-linecap="round" transform="matrix(0.0360166, 0, 0, -0.0360268, -42.253476, 418.155645)" fill-opacity="1" fill="#0cc0df" fill-rule="evenodd" stroke-linejoin="round" d="M 6377.914723 10445.105098 L 8903.554596 5659.609838 L 6377.914723 5410.771892 Z M 6377.914723 10445.105098 " stroke="#000000" stroke-width="85.039001" stroke-opacity="1" stroke-miterlimit="22.926001"/><path stroke-linecap="round" transform="matrix(0.0360166, 0, 0, -0.0360268, -42.253476, 418.155645)" fill-opacity="1" fill="#5ce1e6" fill-rule="evenodd" stroke-linejoin="round" d="M 6377.914723 7010.274023 L 8903.554596 5659.609838 L 6377.914723 4308.945654 Z M 6377.914723 7010.274023 " stroke="#000000" stroke-width="85.039001" stroke-opacity="1" stroke-miterlimit="22.926001"/><path stroke-linecap="round" transform="matrix(0.0360166, 0, 0, -0.0360268, -42.253476, 418.155645)" fill-opacity="1" fill="#0cc0df" fill-rule="evenodd" stroke-linejoin="round" d="M 8903.554596 5410.771892 L 6377.914723 2310.869103 L 6377.914723 4060.216133 Z M 8903.554596 5410.771892 " stroke="#000000" stroke-width="85.039001" stroke-opacity="1" stroke-miterlimit="22.926001"/></svg>